<svg width="414" height="319" viewBox="0 0 414 319" fill="none" xmlns="http://www.w3.org/2000/svg">
<g clip-path="url(#clip0)">
<path d="M289.265 291.886L288.656 290.984C289.557 290.377 290.451 289.762 291.338 289.139L291.965 290.029C291.072 290.657 290.172 291.276 289.265 291.886Z" fill="#CCCCCC"/>
<path d="M201.353 319L201.345 317.911C203.548 317.896 205.776 317.834 207.965 317.728L208.017 318.816C205.813 318.922 203.571 318.984 201.353 319ZM194.686 318.911C192.474 318.836 190.234 318.714 188.03 318.548L188.112 317.463C190.301 317.627 192.526 317.749 194.723 317.823L194.686 318.911ZM214.667 318.357L214.569 317.273C216.756 317.077 218.97 316.832 221.149 316.544L221.291 317.623C219.097 317.913 216.869 318.16 214.667 318.357ZM181.393 317.91C179.191 317.652 176.969 317.345 174.789 316.996L174.962 315.921C177.126 316.267 179.333 316.572 181.52 316.829L181.393 317.91ZM227.88 316.613L227.692 315.541C229.854 315.163 232.04 314.734 234.188 314.265L234.42 315.329C232.258 315.801 230.057 316.233 227.88 316.613ZM168.23 315.807C166.062 315.367 163.873 314.874 161.725 314.344L161.987 313.287C164.12 313.814 166.293 314.303 168.447 314.74L168.23 315.807ZM240.902 313.771L240.625 312.718C242.75 312.16 244.891 311.549 246.991 310.902L247.312 311.942C245.198 312.593 243.041 313.209 240.902 313.771ZM155.273 312.604C153.147 311.982 151.004 311.306 148.902 310.594L149.252 309.563C151.339 310.27 153.468 310.941 155.579 311.558L155.273 312.604ZM253.64 309.845L253.275 308.819C255.345 308.084 257.428 307.295 259.466 306.474L259.874 307.484C257.822 308.31 255.724 309.105 253.64 309.845ZM142.623 308.318C140.554 307.519 138.476 306.665 136.447 305.781L136.882 304.783C138.897 305.661 140.961 306.509 143.016 307.303L142.623 308.318ZM266.003 304.863L265.553 303.871C267.557 302.964 269.567 302.003 271.526 301.015L272.017 301.987C270.044 302.982 268.021 303.949 266.003 304.863ZM130.384 302.987C128.392 302.018 126.394 300.993 124.445 299.942L124.963 298.984C126.899 300.028 128.883 301.046 130.861 302.008L130.384 302.987ZM277.905 298.862L277.374 297.911C279.293 296.84 281.215 295.714 283.087 294.565L283.657 295.493C281.773 296.65 279.838 297.783 277.905 298.862ZM118.64 296.651C116.74 295.52 114.835 294.332 112.979 293.121L113.575 292.21C115.418 293.413 117.31 294.592 119.198 295.715L118.64 296.651ZM107.472 289.359C105.672 288.074 103.874 286.733 102.126 285.372L102.796 284.513C104.532 285.865 106.318 287.197 108.105 288.473L107.472 289.359ZM96.9523 281.166C95.2634 279.734 93.5831 278.248 91.9583 276.75L92.6973 275.95C94.3111 277.438 95.98 278.914 97.6574 280.336L96.9523 281.166ZM87.1531 272.132C85.5902 270.566 84.0396 268.947 82.5442 267.319L83.3471 266.582C84.8323 268.199 86.3724 269.808 87.9246 271.363L87.1531 272.132ZM78.1399 262.319C76.7148 260.632 75.3044 258.891 73.9478 257.142L74.8089 256.475C76.1563 258.211 77.5572 259.941 78.9726 261.617L78.1399 262.319ZM69.9753 251.796C68.6941 249.995 67.4337 248.143 66.2294 246.29L67.1432 245.697C68.3393 247.537 69.591 249.376 70.8634 251.165L69.9753 251.796ZM62.7171 240.634C61.5907 238.733 60.4897 236.783 59.4447 234.838L60.4049 234.323C61.4426 236.255 62.536 238.192 63.6549 240.08L62.7171 240.634ZM56.4185 228.912C55.4557 226.925 54.5222 224.89 53.6438 222.865L54.6437 222.432C55.5161 224.444 56.4432 226.464 57.3993 228.437L56.4185 228.912ZM51.1262 216.709C50.3328 214.647 49.5729 212.54 48.8678 210.449L49.9004 210.101C50.6008 212.178 51.3554 214.27 52.1433 216.319L51.1262 216.709Z" fill="#CCCCCC"/>
<path d="M46.8561 204.034C46.5518 202.986 46.2579 201.934 45.9746 200.877L47.0272 200.595C47.3085 201.645 47.6003 202.69 47.9026 203.731L46.8561 204.034Z" fill="#CCCCCC"/>
<path d="M357.757 141.749C357.636 140.669 357.505 139.592 357.363 138.518L358.443 138.375C358.586 139.456 358.719 140.541 358.84 141.628L357.757 141.749Z" fill="#CCCCCC"/>
<path d="M343.658 229.54L342.679 229.061C343.615 227.15 344.525 225.194 345.383 223.245L346.381 223.684C345.516 225.646 344.601 227.616 343.658 229.54ZM348.863 217.721L347.848 217.323C348.626 215.343 349.373 213.319 350.07 211.307L351.099 211.663C350.398 213.688 349.646 215.727 348.863 217.721ZM353.087 205.518L352.044 205.205C352.658 203.164 353.238 201.085 353.767 199.027L354.822 199.297C354.289 201.37 353.706 203.463 353.087 205.518ZM356.302 193.011L355.237 192.784C355.682 190.703 356.09 188.584 356.451 186.485L357.525 186.669C357.162 188.782 356.75 190.916 356.302 193.011ZM358.488 180.283L357.408 180.143C357.682 178.036 357.918 175.89 358.107 173.767L359.193 173.863C359.002 176.002 358.765 178.162 358.488 180.283ZM359.638 167.42L358.55 167.366C358.653 165.244 358.716 163.087 358.735 160.954L359.825 160.964C359.805 163.111 359.743 165.283 359.638 167.42ZM358.665 154.539C358.6 152.41 358.49 150.255 358.34 148.135L359.427 148.058C359.578 150.193 359.688 152.362 359.754 154.505L358.665 154.539Z" fill="#CCCCCC"/>
<path d="M339.12 238.128L338.172 237.59C338.707 236.648 339.233 235.699 339.75 234.745L340.708 235.263C340.188 236.224 339.659 237.179 339.12 238.128Z" fill="#CCCCCC"/>
<path d="M56.9905 91.4165L56.0068 90.9481C56.4777 89.9612 56.9584 88.9799 57.4489 88.0043L58.4227 88.4928C57.9357 89.462 57.4583 90.4365 56.9905 91.4165Z" fill="#CCCCCC"/>
<path d="M61.4654 82.7392L60.5127 82.2107C61.5692 80.3089 62.6793 78.4041 63.8122 76.5485L64.7424 77.1157C63.6173 78.9583 62.5148 80.8503 61.4654 82.7392ZM336.103 77.8799C334.99 76.0336 333.822 74.1828 332.631 72.379L333.541 71.7793C334.74 73.5956 335.916 75.4592 337.037 77.318L336.103 77.8799ZM68.2485 71.6299L67.3424 71.0255C68.5514 69.2169 69.8144 67.4086 71.0964 65.6514L71.977 66.2925C70.7037 68.0381 69.4493 69.8339 68.2485 71.63V71.6299ZM328.936 67.0245C327.673 65.2725 326.357 63.5233 325.024 61.8253L325.881 61.1533C327.223 62.863 328.548 64.6243 329.82 66.3882L328.936 67.0245ZM75.9207 61.1126L75.0671 60.4359C76.4205 58.7318 77.8271 57.0333 79.2477 55.3874L80.0728 56.0987C78.6618 57.7332 77.2649 59.42 75.9207 61.1127V61.1126ZM320.902 56.7895C319.499 55.145 318.044 53.5084 316.578 51.9255L317.377 51.186C318.854 52.7798 320.319 54.4273 321.731 56.083L320.902 56.7895ZM84.4262 51.2584L83.6307 50.5141C85.117 48.928 86.6573 47.3499 88.2088 45.8242L88.9733 46.5998C87.4323 48.1154 85.9024 49.6829 84.4262 51.2584ZM312.058 47.2417C310.527 45.7186 308.943 44.2059 307.35 42.7456L308.086 41.9433C309.69 43.4138 311.285 44.9369 312.827 46.4703L312.058 47.2417ZM93.7065 42.1313L92.9744 41.3248C94.5854 39.865 96.2492 38.4179 97.9194 37.024L98.618 37.8597C96.959 39.2441 95.3066 40.6813 93.7065 42.1313ZM302.462 38.4451C300.81 37.0509 299.108 35.6721 297.401 34.3471L298.07 33.4875C299.788 34.8215 301.502 36.2099 303.165 37.6136L302.462 38.4451ZM103.7 33.7923L103.036 32.929C104.76 31.6058 106.536 30.2996 108.315 29.0466L108.943 29.9365C107.176 31.181 105.412 32.4784 103.7 33.7923V33.7923ZM292.177 30.4588C290.416 29.2039 288.606 27.9687 286.797 26.7875L287.393 25.876C289.215 27.0655 291.037 28.309 292.81 29.5726L292.177 30.4588ZM114.339 26.2986L113.748 25.3837C115.575 24.2059 117.452 23.0496 119.327 21.9471L119.88 22.8854C118.018 23.9805 116.154 25.1288 114.339 26.2986ZM281.27 23.3397C279.414 22.2339 277.509 21.151 275.606 20.1213L276.125 19.1638C278.041 20.2007 279.96 21.2911 281.828 22.4045L281.27 23.3397ZM125.555 19.7021L125.042 18.742C126.961 17.717 128.926 16.7189 130.883 15.7753L131.357 16.7556C129.413 17.6928 127.461 18.6843 125.555 19.702V19.7021ZM269.813 17.1381C267.866 16.1859 265.877 15.2636 263.901 14.3965L264.339 13.3997C266.329 14.2726 268.331 15.2014 270.292 16.1604L269.813 17.1381ZM137.273 14.0512L136.84 13.0518C138.835 12.1897 140.875 11.357 142.905 10.5768L143.296 11.5933C141.28 12.3678 139.254 13.1948 137.273 14.0512ZM257.88 11.9008C255.866 11.1146 253.807 10.3591 251.76 9.65606L252.115 8.62632C254.176 9.33443 256.249 10.0949 258.277 10.8868L257.88 11.9008ZM149.414 9.38626L149.065 8.35492C151.127 7.65904 153.228 6.99771 155.312 6.38927L155.617 7.43443C153.548 8.03862 151.461 8.69543 149.414 9.38626ZM245.551 7.66621C243.477 7.04848 241.361 6.46582 239.264 5.93473L239.532 4.87947C241.644 5.41428 243.774 6.00065 245.863 6.62265L245.551 7.66621ZM161.895 5.74016L161.632 4.68331C163.743 4.16046 165.891 3.67482 168.017 3.24049L168.236 4.30693C166.124 4.7386 163.991 5.22077 161.895 5.74016ZM232.909 4.46508C230.8 4.02277 228.647 3.61768 226.51 3.2607L226.69 2.18683C228.842 2.5462 231.009 2.95422 233.133 3.3997L232.909 4.46508ZM174.641 3.13444L174.467 2.0595C176.614 1.71183 178.799 1.40428 180.959 1.14539L181.089 2.22617C178.943 2.48347 176.774 2.78915 174.641 3.13444ZM220.067 2.32079C217.927 2.05339 215.748 1.82613 213.59 1.64591L213.681 0.560874C215.854 0.742418 218.048 0.971021 220.202 1.24055L220.067 2.32079ZM187.569 1.58317L187.483 0.497603C189.651 0.327213 191.853 0.198828 194.028 0.116159L194.069 1.20412C191.909 1.28627 189.722 1.41359 187.569 1.58317V1.58317ZM207.091 1.23549C204.934 1.14352 202.743 1.09407 200.581 1.08875L200.584 0C202.76 0.00531856 204.966 0.0550308 207.138 0.147798L207.091 1.23549Z" fill="#CCCCCC"/>
<path d="M340.908 86.4381C340.406 85.4751 339.894 84.518 339.373 83.5668L340.329 83.0443C340.854 84.002 341.369 84.9656 341.874 85.9352L340.908 86.4381Z" fill="#CCCCCC"/>
<path d="M165.321 106.697H155.241V191.892C155.239 194.057 154.377 196.133 152.845 197.663C151.312 199.194 149.235 200.055 147.068 200.058H-17.7477V207.407C-17.7442 209.86 -16.7672 212.212 -15.0309 213.947C-13.2947 215.682 -10.9408 216.658 -8.48529 216.661H165.321C167.776 216.658 170.13 215.682 171.867 213.947C173.603 212.212 174.58 209.86 174.583 207.407V115.952C174.58 113.498 173.603 111.147 171.867 109.412C170.13 107.677 167.776 106.701 165.321 106.697Z" fill="#F2F2F2"/>
<path d="M147.069 91.1826H-26.7376C-29.1931 91.186 -31.547 92.1622 -33.2833 93.8969C-35.0196 95.6317 -35.9965 97.9836 -36 100.437V191.892C-35.9965 194.346 -35.0195 196.698 -33.2833 198.432C-31.547 200.167 -29.1931 201.143 -26.7376 201.147H147.069C149.524 201.143 151.878 200.167 153.614 198.432C155.35 196.698 156.327 194.346 156.331 191.892V100.437C156.327 97.9836 155.35 95.6317 153.614 93.8969C151.878 92.1622 149.524 91.186 147.069 91.1826ZM155.241 191.892C155.239 194.057 154.377 196.133 152.845 197.663C151.312 199.194 149.235 200.055 147.069 200.058H-26.7376C-28.9043 200.055 -30.9816 199.194 -32.5137 197.663C-34.0458 196.133 -34.9077 194.057 -34.9103 191.892V100.437C-34.9077 98.2721 -34.0458 96.1967 -32.5137 94.6659C-30.9816 93.1351 -28.9043 92.2739 -26.7376 92.2713H147.069C149.235 92.2739 151.312 93.1351 152.845 94.6659C154.377 96.1967 155.239 98.2721 155.241 100.437V191.892Z" fill="#3F3D56"/>
<path d="M133.96 158.685H72.9371C71.7811 158.685 70.6724 158.226 69.855 157.41C69.0376 156.593 68.5784 155.485 68.5784 154.33C68.5784 153.175 69.0376 152.068 69.855 151.251C70.6724 150.434 71.7811 149.975 72.9371 149.975H133.96C135.116 149.975 136.225 150.434 137.042 151.251C137.86 152.068 138.319 153.175 138.319 154.33C138.319 155.485 137.86 156.593 137.042 157.41C136.225 158.226 135.116 158.685 133.96 158.685Z" fill="#CCCCCC"/>
<path d="M95.8207 140.176H72.9371C71.7811 140.176 70.6725 139.718 69.855 138.901C69.0376 138.084 68.5784 136.976 68.5784 135.821C68.5784 134.666 69.0376 133.559 69.855 132.742C70.6725 131.925 71.7811 131.466 72.9371 131.466H95.8207C96.9767 131.466 98.0854 131.925 98.9028 132.742C99.7202 133.559 100.179 134.666 100.179 135.821C100.179 136.976 99.7202 138.084 98.9028 138.901C98.0854 139.718 96.9767 140.176 95.8207 140.176Z" fill="#CCCCCC"/>
<path d="M45.4546 180.46H-10.1198C-11.3476 180.459 -12.5248 179.971 -13.393 179.104C-14.2612 178.236 -14.7496 177.06 -14.751 175.833V114.319C-14.7496 113.092 -14.2612 111.916 -13.393 111.048C-12.5248 110.181 -11.3476 109.693 -10.1198 109.691H45.4546C46.6824 109.693 47.8596 110.181 48.7278 111.048C49.596 111.916 50.0844 113.092 50.0858 114.319V175.833C50.0844 177.06 49.596 178.236 48.7278 179.104C47.8596 179.971 46.6824 180.459 45.4546 180.46Z" fill="#FF4B3A"/>
<path d="M18.5084 167.647C17.283 167.613 15.7579 167.57 14.5837 166.713C14.2339 166.448 13.9465 166.109 13.7416 165.72C13.5367 165.332 13.4193 164.903 13.3976 164.465C13.3764 164.153 13.4276 163.841 13.5472 163.552C13.6668 163.263 13.8516 163.006 14.0871 162.801C14.4371 162.54 14.847 162.37 15.2793 162.308C15.7117 162.246 16.1527 162.293 16.5622 162.445L15.5618 155.14L16.2962 155.04L17.4723 163.627L16.8591 163.346C16.1481 163.02 15.1721 162.855 14.5656 163.366C14.4167 163.5 14.3007 163.667 14.2266 163.853C14.1525 164.038 14.1223 164.239 14.1384 164.438C14.1564 164.765 14.2445 165.084 14.3968 165.373C14.5491 165.662 14.7619 165.915 15.0209 166.115C15.9347 166.782 17.1504 166.868 18.5293 166.907L18.5084 167.647Z" fill="#3F3D56"/>
<path d="M11.9301 155.77H7.93787V156.511H11.9301V155.77Z" fill="#3F3D56"/>
<path d="M24.5312 155.77H20.5389V156.511H24.5312V155.77Z" fill="#3F3D56"/>
<path d="M1.00196 145.543C-2.2129 145.177 -4.70274 142.099 -4.97622 138.977C-5.30155 135.262 -3.13623 131.734 -0.165566 129.649C2.94106 127.469 6.81163 126.558 10.5566 126.358C17.8621 125.995 25.0417 128.359 30.6992 132.991C33.5053 135.32 36.1261 138.286 37.1194 141.869C37.982 144.981 37.28 148.506 34.7753 150.685C34.1557 151.219 33.432 151.619 32.65 151.86C31.8679 152.1 31.0444 152.176 30.2315 152.083C28.288 151.881 26.4948 150.86 24.9425 149.733C21.9231 147.539 19.4444 144.484 15.7658 143.337C13.0685 142.497 9.56821 143.237 7.9199 145.674C7.54588 146.232 7.30351 146.867 7.21105 147.532C7.17699 147.674 7.19815 147.823 7.27024 147.95C7.34233 148.077 7.45997 148.172 7.59934 148.215C7.74149 148.254 7.89299 148.234 8.02101 148.162C8.14903 148.089 8.24324 147.969 8.2832 147.827C8.71593 144.758 12.4935 143.612 15.1444 144.313C19.0094 145.336 21.604 148.782 24.7751 150.971C26.4166 152.194 28.3504 152.965 30.3835 153.208C32.1464 153.346 33.8958 152.809 35.277 151.706C37.9861 149.568 39.0221 145.892 38.423 142.582C37.7293 138.75 35.1474 135.465 32.3145 132.921C26.5713 127.82 19.1153 125.068 11.4321 125.214C7.51331 125.304 3.42441 126.112 0.0483785 128.181C-3.22636 130.189 -5.75744 133.547 -6.08826 137.451C-6.37944 140.887 -4.53436 144.481 -1.36711 145.986C-0.62034 146.34 0.180449 146.565 1.00196 146.654C1.71168 146.735 1.7059 145.624 1.00196 145.543Z" fill="#3F3D56"/>
<path d="M442.648 250.957H433.898V279.439C433.894 281.892 432.917 284.244 431.181 285.979C429.445 287.714 427.091 288.69 424.635 288.693H206.184V292.874C206.187 295.617 207.278 298.246 209.219 300.185C211.16 302.124 213.792 303.215 216.537 303.217H442.648C445.393 303.215 448.024 302.124 449.965 300.185C451.906 298.246 452.998 295.617 453 292.874V261.3C452.998 258.558 451.906 255.929 449.965 253.989C448.024 252.05 445.393 250.96 442.648 250.957Z" fill="#F2F2F2"/>
<path d="M424.635 237.522H198.524C195.779 237.524 193.147 238.615 191.207 240.554C189.266 242.493 188.174 245.123 188.172 247.865V279.439C188.174 282.181 189.266 284.811 191.207 286.75C193.147 288.689 195.779 289.78 198.524 289.782H424.635C427.38 289.78 430.012 288.689 431.953 286.75C433.893 284.811 434.985 282.181 434.987 279.439V247.865C434.985 245.123 433.893 242.493 431.953 240.554C430.012 238.615 427.38 237.524 424.635 237.522ZM433.898 279.439C433.894 281.892 432.917 284.244 431.181 285.979C429.445 287.714 427.091 288.69 424.635 288.693H198.524C196.068 288.69 193.714 287.714 191.978 285.979C190.242 284.244 189.265 281.892 189.261 279.439V247.865C189.265 245.412 190.242 243.06 191.978 241.325C193.714 239.59 196.068 238.614 198.524 238.611H424.635C427.091 238.614 429.445 239.59 431.181 241.325C432.917 243.06 433.894 245.412 433.898 247.865V279.439Z" fill="#3F3D56"/>
<path d="M238.206 246.233C234.758 246.233 231.387 247.255 228.519 249.169C225.652 251.083 223.418 253.804 222.098 256.987C220.778 260.17 220.433 263.673 221.106 267.052C221.779 270.431 223.439 273.535 225.877 275.971C228.316 278.408 231.422 280.067 234.804 280.739C238.187 281.411 241.692 281.066 244.878 279.748C248.064 278.429 250.787 276.196 252.703 273.332C254.618 270.467 255.641 267.099 255.641 263.654C255.636 259.035 253.797 254.607 250.529 251.342C247.26 248.076 242.828 246.239 238.206 246.233Z" fill="#FF4B3A"/>
<path d="M398.031 278.352H273.261C272.105 278.352 270.996 277.893 270.179 277.076C269.361 276.259 268.902 275.152 268.902 273.997C268.902 272.842 269.361 271.734 270.179 270.917C270.996 270.101 272.105 269.642 273.261 269.642H398.031C399.187 269.642 400.295 270.101 401.113 270.917C401.93 271.734 402.389 272.842 402.389 273.997C402.389 275.152 401.93 276.259 401.113 277.076C400.295 277.893 399.187 278.352 398.031 278.352Z" fill="#CCCCCC"/>
<path d="M335.373 259.843H273.261C272.105 259.843 270.996 259.384 270.179 258.567C269.361 257.751 268.902 256.643 268.902 255.488C268.902 254.333 269.361 253.225 270.179 252.408C270.996 251.592 272.105 251.133 273.261 251.133H335.373C336.529 251.133 337.638 251.592 338.455 252.408C339.273 253.225 339.732 254.333 339.732 255.488C339.732 256.643 339.273 257.751 338.455 258.567C337.638 259.384 336.529 259.843 335.373 259.843Z" fill="#CCCCCC"/>
<path d="M237.023 271.27C236.573 271.271 236.134 271.126 235.774 270.856L235.752 270.839L231.045 267.242C230.605 266.905 230.317 266.406 230.244 265.857C230.172 265.308 230.321 264.752 230.658 264.312C230.995 263.872 231.494 263.584 232.044 263.512C232.594 263.439 233.15 263.588 233.59 263.925L236.639 266.261L243.842 256.871C244.009 256.653 244.217 256.471 244.455 256.333C244.693 256.196 244.955 256.107 245.227 256.071C245.5 256.035 245.776 256.053 246.041 256.124C246.307 256.195 246.555 256.317 246.773 256.484L246.774 256.485L246.729 256.547L246.775 256.485C247.215 256.822 247.502 257.32 247.575 257.869C247.647 258.418 247.499 258.974 247.162 259.414L238.689 270.453C238.493 270.707 238.241 270.913 237.952 271.055C237.664 271.196 237.347 271.269 237.025 271.268L237.023 271.27Z" fill="white"/>
<path d="M410.502 95.8098H409.347C409.369 96.0439 409.38 96.2834 409.38 96.5284V128.102C409.376 130.556 408.399 132.907 406.663 134.642C404.927 136.377 402.573 137.353 400.117 137.357H291.725V137.727C291.725 137.966 291.736 138.206 291.752 138.445C291.935 141.057 293.102 143.503 295.018 145.289C296.934 147.075 299.457 148.069 302.077 148.07H410.502C413.247 148.067 415.878 146.977 417.819 145.038C419.76 143.099 420.852 140.469 420.854 137.727V106.153C420.852 103.411 419.76 100.781 417.819 98.842C415.878 96.9028 413.247 95.8123 410.502 95.8098Z" fill="#F2F2F2"/>
<path d="M410.442 95.8098C410.26 93.1978 409.093 90.7522 407.177 88.9661C405.26 87.18 402.738 86.1862 400.117 86.1852H291.693C288.948 86.1877 286.316 87.2782 284.375 89.2174C282.435 91.1565 281.343 93.7859 281.341 96.5283V128.102C281.343 130.845 282.435 133.474 284.375 135.413C286.316 137.352 288.948 138.443 291.693 138.445H400.117C402.862 138.443 405.494 137.352 407.434 135.413C409.375 133.474 410.467 130.845 410.469 128.102V96.5283C410.469 96.2888 410.458 96.0493 410.442 95.8098ZM409.38 128.102C409.376 130.556 408.399 132.907 406.663 134.642C404.927 136.377 402.573 137.353 400.117 137.357H291.693C289.237 137.353 286.883 136.377 285.147 134.642C283.411 132.907 282.434 130.556 282.43 128.102V96.5283C282.434 94.075 283.411 91.7231 285.147 89.9883C286.883 88.2535 289.237 87.2774 291.693 87.2739H400.117C402.448 87.2772 404.692 88.1573 406.402 89.7391C408.112 91.3209 409.164 93.4883 409.347 95.8098C409.369 96.0438 409.38 96.2834 409.38 96.5283V128.102Z" fill="#3F3D56"/>
<path d="M372.603 125.926H319.208C318.052 125.926 316.943 125.467 316.126 124.651C315.308 123.834 314.849 122.726 314.849 121.571C314.849 120.416 315.308 119.308 316.126 118.492C316.943 117.675 318.052 117.216 319.208 117.216H372.603C373.759 117.216 374.868 117.675 375.685 118.492C376.503 119.308 376.962 120.416 376.962 121.571C376.962 122.726 376.503 123.834 375.685 124.651C374.868 125.467 373.759 125.926 372.603 125.926Z" fill="#CCCCCC"/>
<path d="M356.258 107.417H319.208C318.052 107.417 316.943 106.959 316.126 106.142C315.308 105.325 314.849 104.217 314.849 103.062C314.849 101.907 315.308 100.8 316.126 99.9829C316.943 99.1662 318.052 98.7074 319.208 98.7074H356.258C357.414 98.7074 358.522 99.1662 359.34 99.9829C360.157 100.8 360.616 101.907 360.616 103.062C360.616 104.217 360.157 105.325 359.34 106.142C358.522 106.959 357.414 107.417 356.258 107.417Z" fill="#CCCCCC"/>
</g>
<defs>
<clipPath id="clip0">
<rect width="489" height="319" fill="white" transform="translate(-36)"/>
</clipPath>
</defs>
</svg>
